<svg width="630" height="100" xmlns="http://www.w3.org/2000/svg" preserveAspectRatio="xMidYMid meet">

 <g>
  <title>background</title>
  <rect fill="none" id="canvas_background" height="102" width="632" y="-1" x="-1"/>
 </g>
 <g>
  <title>Layer 1</title>
  <path stroke="null" fill="#68a4c4" id="svg_2" d="m31.114025,4.291666c-8.07493,6.491911 -14.442106,16.219134 -17.246194,26.350772c-2.445671,8.790685 -2.572171,18.539194 -0.358418,27.351164c2.150504,8.577836 6.725595,16.772543 12.966271,23.285738c9.086932,9.450519 21.062284,15.005892 34.091805,15.793435c2.572171,0.17028 3.014922,0.021285 3.014922,-0.872683c0,-0.744973 -0.442751,-0.957823 -2.740838,-1.277097c-12.101853,-1.724081 -21.0412,-10.025213 -23.550121,-21.880931c-0.527084,-2.426485 -0.506001,-7.875433 0,-10.323202c0.990918,-4.55498 3.141422,-9.046105 5.797926,-12.174993l0.653584,-0.744974l9.909183,10.003928l9.930266,10.003928l9.972433,-10.067783l9.972432,-10.067783l1.138502,1.489947c6.493677,8.343702 7.568929,19.475732 2.846255,28.968821c-0.927668,1.873076 -1.644503,2.979893 -3.204672,4.959394c-0.864418,1.085532 -1.138502,1.575086 -1.075252,2.02207c0.084334,0.851399 0.990919,0.851399 3.036005,0.04257c9.867016,-3.959001 17.667862,-10.493481 22.685704,-18.986178c4.216673,-7.151744 6.346093,-15.027176 6.346093,-23.370878c-0.021083,-11.515159 -3.499839,-22.051211 -10.309767,-31.28888c-1.813169,-2.44777 -6.957511,-7.790293 -9.171264,-9.514374l-1.391503,-1.085533l-15.369774,15.516731l-15.369775,15.51673l-15.390858,-15.538015l-15.390859,-15.538016l-1.792086,1.426092z"/>
  <text xml:space="preserve" text-anchor="start" font-family="Junction, sans-serif" font-size="70" id="svg_5" y="77.414065" x="133.406993" stroke-opacity="null" stroke-width="0" stroke="null" fill="#ffffff">Mawrid Tech</text>
 </g>
</svg>